{
    "asset" : {
        "generator" : "Khronos glTF Blender I/O v3.2.40",
        "version" : "2.0"
    },
    "scene" : 0,
    "scenes" : [
        {
            "name" : "Scene",
            "nodes" : [
                0
            ]
        }
    ],
    "nodes" : [
        {
            "mesh" : 0,
            "name" : "Text",
            "rotation" : [
                0.6875171661376953,
                0.0007248182664625347,
                -0.004188828635960817,
                0.726155698299408
            ],
            "scale" : [
                0.4902692139148712,
                0.49026912450790405,
                0.49026915431022644
            ],
            "translation" : [
                0.19588828086853027,
                0.6052877902984619,
                -0.03336286544799805
            ]
        }
    ],
    "materials" : [
        {
            "doubleSided" : true,
            "emissiveFactor" : [
                1,
                0.27483733446375425,
                1
            ],
            "name" : "Material.001",
            "pbrMetallicRoughness" : {
                "baseColorFactor" : [
                    0,
                    0,
                    0,
                    1
                ]
            }
        }
    ],
    "meshes" : [
        {
            "name" : "Text.001",
            "primitives" : [
                {
                    "attributes" : {
                        "POSITION" : 0,
                        "NORMAL" : 1,
                        "TEXCOORD_0" : 2
                    },
                    "indices" : 3,
                    "material" : 0
                }
            ]
        }
    ],
    "accessors" : [
        {
            "bufferView" : 0,
            "componentType" : 5126,
            "count" : 8449,
            "max" : [
                2.6469998359680176,
                0.1599999964237213,
                1.0089999437332153
            ],
            "min" : [
                -2.6599998474121094,
                -0.1599999964237213,
                -0.6820000410079956
            ],
            "type" : "VEC3"
        },
        {
            "bufferView" : 1,
            "componentType" : 5126,
            "count" : 8449,
            "type" : "VEC3"
        },
        {
            "bufferView" : 2,
            "componentType" : 5126,
            "count" : 8449,
            "type" : "VEC2"
        },
        {
            "bufferView" : 3,
            "componentType" : 5123,
            "count" : 15216,
            "type" : "SCALAR"
        }
    ],
    "bufferViews" : [
        {
            "buffer" : 0,
            "byteLength" : 101388,
            "byteOffset" : 0
        },
        {
            "buffer" : 0,
            "byteLength" : 101388,
            "byteOffset" : 101388
        },
        {
            "buffer" : 0,
            "byteLength" : 67592,
            "byteOffset" : 202776
        },
        {
            "buffer" : 0,
            "byteLength" : 30432,
            "byteOffset" : 270368
        }
    ],
    "buffers" : [
        {
            "byteLength" : 300800,
            "uri" : "data:application/octet-stream;base64,"
        }
    ]
}
